<?xml version="1.0" encoding="utf-8"?>
<!-- Generator: Adobe Illustrator 14.0.0, SVG Export Plug-In . SVG Version: 6.00 Build 43363)  -->
<!DOCTYPE svg PUBLIC "-//W3C//DTD SVG 1.1//EN" "http://www.w3.org/Graphics/SVG/1.1/DTD/svg11.dtd">
<svg version="1.1" xmlns="http://www.w3.org/2000/svg" xmlns:xlink="http://www.w3.org/1999/xlink" x="0px" y="0px" width="800px"
	 height="600px" viewBox="0 0 800 600" enable-background="new 0 0 800 600" xml:space="preserve">
<g id="face">
	<circle fill="#DDCCB8" cx="337.216" cy="177.782" r="58.261"/>
</g>
<g id="hat">
	<path fill="#070707" d="M406.902,116.548c1.034,3.221-0.117,6.471-2.571,7.259l-149.798,48.103
		c-2.454,0.788-5.282-1.184-6.316-4.405l0,0c-1.034-3.22,0.117-6.47,2.571-7.258l149.798-48.103
		C403.04,111.355,405.868,113.327,406.902,116.548L406.902,116.548z"/>
	<path fill="#070707" d="M378.205,118.761c1.688,5.258-0.9,10.792-5.784,12.36l-85.145,27.341
		c-4.884,1.568-10.21-1.423-11.899-6.682l-9.172-28.563c-1.689-5.258,0.9-10.792,5.784-12.36l85.146-27.341
		c4.884-1.568,10.21,1.424,11.898,6.682L378.205,118.761z"/>
</g>
<g id="left-upper-arm">
	<g>
		<path d="M301.049,266.345c-5.003,10.4-17.491,14.777-27.892,9.773c-9.657-4.646-14.12-15.743-10.705-25.632
			c0.264-0.762,0.573-1.516,0.932-2.261c5.003-10.401,17.491-14.777,27.892-9.773C301.677,243.456,306.053,255.943,301.049,266.345z
			"/>
		<polygon points="262.025,251.051 248.79,314.724 256.135,318.257 299.69,269.17 		"/>
	</g>
</g>
<g id="right-upper-arm">
	<g>
		<path d="M380.86,266.345c5.003,10.4,17.492,14.777,27.892,9.773c9.657-4.646,14.12-15.743,10.705-25.632
			c-0.264-0.762-0.573-1.516-0.932-2.261c-5.003-10.401-17.49-14.777-27.893-9.773C380.232,243.456,375.856,255.943,380.86,266.345z
			"/>
		<polygon points="419.885,251.051 433.119,314.724 425.774,318.257 382.219,269.17 		"/>
	</g>
</g>
<g id="body">
	<path fill="#070707" d="M407.695,371.565c0,5.025-3.809,9.1-8.505,9.1h-117.95c-4.697,0-8.504-4.074-8.504-9.1V245.36
		c0-5.026,3.808-9.1,8.504-9.1h117.95c4.696,0,8.505,4.074,8.505,9.1V371.565z"/>
	<path fill="#FF2400" d="M278.171,258.346c-6.099,0-11.043-4.944-11.043-11.043l0,0c0-6.099,4.944-11.043,11.043-11.043h17.045
		c6.099,0,11.043,4.945,11.043,11.043l0,0c0,6.099-4.944,11.043-11.043,11.042H278.171z"/>
	<path fill="#FF2400" d="M387.146,258.346c-6.099,0-11.043-4.944-11.043-11.043l0,0c0-6.099,4.944-11.043,11.043-11.043h17.045
		c6.099,0,11.043,4.945,11.043,11.043l0,0c0,6.099-4.944,11.043-11.043,11.042H387.146z"/>
	<polygon fill="#FFFFFF" points="315.334,235.26 362.002,235.26 340.216,294 	"/>
</g>
<g id="leg-roll">
	<circle cx="342.216" cy="401.926" r="58.261"/>
	<circle cx="341.216" cy="479" r="21.261"/>
</g>
</svg>
