<?xml version="1.0" encoding="utf-8"?>
<!-- Generator: Adobe Illustrator 14.0.0, SVG Export Plug-In . SVG Version: 6.00 Build 43363)  -->
<!DOCTYPE svg PUBLIC "-//W3C//DTD SVG 1.1//EN" "http://www.w3.org/Graphics/SVG/1.1/DTD/svg11.dtd">
<svg version="1.1" xmlns="http://www.w3.org/2000/svg" xmlns:xlink="http://www.w3.org/1999/xlink" x="0px" y="0px" width="800px"
	 height="600px" viewBox="0 0 800 600" enable-background="new 0 0 800 600" xml:space="preserve">
<g id="lower-body">
	<g id="leg-roll-small_1_">
		<circle fill="none" stroke="#383838" stroke-width="5" cx="342.216" cy="520.448" r="21.261"/>
		<circle fill="none" stroke="#383838" stroke-width="2" cx="342.386" cy="520.439" r="12.27"/>
		<circle fill="none" stroke="#FFFFFF" cx="342.467" cy="520.536" r="20.963"/>
		<polygon fill="#383838" points="342.467,520.537 335.318,510.41 340.98,508.252 349.005,510.111 		"/>
	</g>
	<g id="leg-roll-large_1_">
		<path opacity="0.8" fill="#FF0000" d="M340.655,390.655c-5.479,0-10.76,0.845-15.724,2.403h31.445
			C351.412,391.5,346.132,390.655,340.655,390.655z"/>
		<path opacity="0.8" fill="#FF6700" d="M364.511,396.406h-47.713c-1.957,1.003-3.848,2.115-5.651,3.348h59.014
			C368.356,398.521,366.465,397.409,364.511,396.406z"/>
		<path opacity="0.8" fill="#FFB600" d="M374.539,403.101h-67.77c-1.25,1.061-2.447,2.177-3.592,3.349h74.953
			C376.986,405.277,375.788,404.161,374.539,403.101z"/>
		<path opacity="0.8" fill="#FF4800" d="M380.778,476.742H300.53c0.973,1.158,1.989,2.279,3.057,3.349h74.135
			C378.789,479.021,379.804,477.9,380.778,476.742z"/>
		<path opacity="0.8" fill="#FF9100" d="M374.043,483.438h-66.778c1.444,1.197,2.959,2.311,4.529,3.349h57.719
			C371.083,485.748,372.598,484.635,374.043,483.438z"/>
		<path opacity="0.8" fill="#FFD400" d="M317.635,490.133c2.796,1.369,5.733,2.488,8.781,3.348h28.476
			c3.047-0.859,5.984-1.979,8.78-3.348H317.635z"/>
		<path opacity="0.8" fill="#DAFF00" d="M381.143,409.795h-80.979c-0.888,1.079-1.724,2.2-2.524,3.348h86.028
			C382.867,411.995,382.031,410.874,381.143,409.795z"/>
		<path opacity="0.8" fill="#64FF00" d="M385.815,416.49h-90.323c-0.644,1.092-1.25,2.207-1.814,3.348h93.953
			C387.066,418.697,386.459,417.582,385.815,416.49z"/>
		<path opacity="0.8" fill="#00FF7F" d="M389.143,423.185h-96.979c-0.45,1.098-0.86,2.215-1.236,3.349h99.451
			C390.003,425.399,389.593,424.282,389.143,423.185z"/>
		<path opacity="0.8" fill="#00FFF2" d="M391.38,429.879H289.927c-0.285,1.102-0.525,2.221-0.739,3.35H392.12
			C391.906,432.1,391.666,430.98,391.38,429.879z"/>
		<path opacity="0.8" fill="#00C9FF" d="M392.64,436.574H288.667c-0.136,1.106-0.244,2.221-0.311,3.348h104.596
			C392.885,438.795,392.777,437.681,392.64,436.574z"/>
		<path opacity="0.8" fill="#0080FF" d="M393.047,443.27H288.259c0.005,1.125,0.055,2.24,0.128,3.348h104.532
			C392.993,445.51,393.043,444.395,393.047,443.27z"/>
		<path opacity="0.8" fill="#4A00FF" d="M392.585,449.964H288.721c0.148,1.127,0.324,2.245,0.544,3.349h102.778
			C392.262,452.209,392.437,451.091,392.585,449.964z"/>
		<path opacity="0.8" fill="#A700FF" d="M391.259,456.658h-101.21c0.303,1.133,0.648,2.248,1.024,3.349h99.16
			C390.611,458.906,390.956,457.791,391.259,456.658z"/>
		<path opacity="0.8" fill="#FF00CF" d="M388.974,463.354h-96.642c0.479,1.14,1.01,2.252,1.564,3.348h93.514
			C387.966,465.605,388.496,464.493,388.974,463.354z"/>
		<path opacity="0.8" fill="#FF0068" d="M385.57,470.049h-89.832c0.692,1.147,1.434,2.26,2.208,3.348h85.417
			C384.136,472.309,384.878,471.196,385.57,470.049z"/>
	</g>
</g>
<g id="upper-body_1_">
	<g id="body">
		<path fill="#333333" d="M400,381.832c0,4.512-3.657,8.168-8.167,8.168h-99.71c-4.511,0-8.167-3.656-8.167-8.168l0,0
			c0-4.511,3.657-8.167,8.167-8.167h99.71C396.343,373.665,400,377.321,400,381.832L400,381.832z"/>
		<path fill="#383838" d="M407.695,371.565c0,5.025-3.809,9.1-8.505,9.1h-117.95c-4.697,0-8.504-4.074-8.504-9.1V245.36
			c0-5.026,3.808-9.1,8.504-9.1h117.95c4.696,0,8.505,4.074,8.505,9.1V371.565z"/>
		<polygon fill="#FFFFFF" points="315.334,235.26 362.002,235.26 340.216,294 		"/>
		<g>
			<path fill="#333333" d="M290.151,254.306c-4.983,0-9.023-4.04-9.023-9.023l0,0c0-4.983,4.04-9.023,9.023-9.023h13.927
				c4.983,0,9.023,4.04,9.023,9.023l0,0c0,4.983-4.04,9.023-9.023,9.022H290.151z"/>
			<path fill="#333333" d="M288.069,254.06c4.656-6.787,6.431-17.799,6.431-17.799h-21.648l-2.069,4.287
				c0,0,4.863-1.825,11.859,9.735C282.833,249.989,287.869,254.352,288.069,254.06z"/>
		</g>
		<g>
			<path fill="#333333" d="M389.732,254.306c4.983,0,9.023-4.04,9.023-9.023l0,0c0-4.983-4.04-9.023-9.023-9.023h-13.927
				c-4.983,0-9.023,4.04-9.023,9.023l0,0c0,4.983,4.04,9.023,9.023,9.022H389.732z"/>
			<path fill="#333333" d="M391.813,254.06c-4.656-6.787-6.431-17.799-6.431-17.799h21.648l2.069,4.287
				c0,0-4.863-1.825-11.858,9.735C397.049,249.989,392.014,254.352,391.813,254.06z"/>
		</g>
		<polygon fill="#333333" points="282.641,250.282 340,328.055 313.101,236.548 		"/>
		<polygon fill="#333333" points="396.819,250.282 340,328.055 366.36,236.548 		"/>
		<polygon points="308.478,238.632 271.707,238.632 270.782,325.667 334.333,317.828 		"/>
		<polygon points="371.485,238.632 408.256,238.632 409.18,325.667 345.629,317.828 		"/>
		<circle fill="#39B54A" cx="340.311" cy="281.298" r="2.666"/>
		<circle fill="#ED1C24" cx="340.311" cy="266.171" r="2.666"/>
		<circle fill="#F15A24" cx="340.311" cy="249.627" r="2.666"/>
	</g>
	<g id="right-lower-arm">
		<path fill="#070707" d="M426.878,308.585c1.787,1.876,1.716,4.847-0.162,6.634l-5.942,5.664c-1.879,1.789-4.85,1.716-6.637-0.157
			l0,0c-1.787-1.882-1.716-4.85,0.162-6.64l5.942-5.663C422.119,306.635,425.09,306.708,426.878,308.585L426.878,308.585z"/>
		<polygon points="427.799,313.446 438.254,342.524 433.452,349.668 418.005,321.562 		"/>
		<path fill="#DDCCB8" d="M451.886,342.185c-1.382-2.545-4.562-3.49-7.108-2.107l-8.447,4.579c-2.546,1.38-3.49,4.562-2.109,7.107
			l6.108,11.263c1.379,2.545,4.562,3.491,7.105,2.111l8.449-4.582c2.545-1.38,3.488-4.562,2.109-7.108L451.886,342.185z"/>
		<path fill="#DDCCB8" d="M457.879,344.779c0.107-2.732-2.021-5.034-4.754-5.14l-5.238-0.205c-2.731-0.107-5.032,2.021-5.141,4.754
			l0,0c-0.105,2.731,2.021,5.032,4.755,5.14l5.237,0.204C455.471,349.64,457.771,347.511,457.879,344.779L457.879,344.779z"/>
		<polygon fill="#070707" points="444.777,340.077 438.253,345.817 438.254,349.668 434.901,352.684 427.825,339.43 		"/>
	</g>
	<g id="left-lower-arm">
		<path fill="#070707" d="M251.924,307.92c-1.787,1.876-1.716,4.847,0.162,6.634l5.942,5.664c1.879,1.789,4.85,1.716,6.637-0.157
			l0,0c1.787-1.882,1.716-4.85-0.162-6.64l-5.942-5.663C256.683,305.97,253.712,306.043,251.924,307.92L251.924,307.92z"/>
		<polygon points="251.003,312.781 240.548,341.859 245.35,349.003 260.797,320.897 		"/>
		<path fill="#DDCCB8" d="M226.917,341.52c1.382-2.545,4.562-3.49,7.108-2.107l8.447,4.579c2.546,1.38,3.49,4.562,2.109,7.107
			l-6.108,11.263c-1.379,2.545-4.562,3.491-7.105,2.111l-8.449-4.582c-2.545-1.38-3.488-4.562-2.109-7.108L226.917,341.52z"/>
		<path fill="#DDCCB8" d="M220.923,344.114c-0.107-2.732,2.021-5.034,4.754-5.14l5.238-0.205c2.731-0.107,5.032,2.021,5.141,4.754
			l0,0c0.105,2.731-2.021,5.032-4.755,5.14l-5.237,0.204C223.332,348.975,221.031,346.846,220.923,344.114L220.923,344.114z"/>
		<polygon fill="#070707" points="234.025,339.412 240.549,345.152 240.548,349.003 243.901,352.019 250.977,338.765 		"/>
	</g>
	<g id="right-upper-arm">
		<g>
			<path d="M385.678,255.296c3.132,6.508,10.945,9.247,17.453,6.115c6.043-2.907,8.836-9.851,6.699-16.038
				c-0.165-0.477-0.359-0.949-0.583-1.415c-3.131-6.509-10.944-9.246-17.453-6.115C385.285,240.973,382.548,248.788,385.678,255.296
				z"/>
			<polygon points="410.215,247.051 424.819,303.697 414.515,316.322 390.33,260.63 			"/>
		</g>
		<path fill="#070707" d="M425.061,304.025c1.953,1.543,2.128,4.32,0.39,6.209l-5.499,5.973c-1.74,1.889-4.729,2.166-6.682,0.623
			l0,0c-1.955-1.543-2.129-4.32-0.39-6.207l5.499-5.977C420.117,302.76,423.107,302.482,425.061,304.025L425.061,304.025z"/>
	</g>
	<g id="left-upper-arm">
		<g>
			<path d="M293.604,255.296c-3.132,6.508-10.945,9.247-17.453,6.115c-6.043-2.907-8.836-9.851-6.699-16.039
				c0.165-0.477,0.359-0.949,0.583-1.415c3.131-6.508,10.944-9.246,17.453-6.115C293.996,240.973,296.733,248.787,293.604,255.296z"
				/>
			<polygon points="269.066,247.051 254.462,303.697 264.767,316.321 288.951,260.63 			"/>
		</g>
		<path fill="#070707" d="M254.221,304.025c-1.953,1.543-2.128,4.32-0.39,6.208l5.5,5.974c1.739,1.888,4.729,2.166,6.681,0.623l0,0
			c1.955-1.543,2.128-4.321,0.39-6.208l-5.499-5.976C259.164,302.76,256.174,302.481,254.221,304.025L254.221,304.025z"/>
	</g>
	<g id="face">
		<circle fill="#DDCCB8" cx="337.216" cy="175.782" r="58.261"/>
		<g>
			<circle cx="331.032" cy="205.168" r="7.643"/>
			<path d="M324.186,201.77c0,0-6.258,11.07-17.729,7.903c4.864,3.139,24.102,9.492,30.348,0.503
				C343.05,201.187,324.186,201.77,324.186,201.77z"/>
		</g>
		<g>
			<circle cx="345.975" cy="205.168" r="7.643"/>
			<path d="M352.822,201.77c0,0,6.258,11.07,17.729,7.903c-4.864,3.139-24.102,9.492-30.348,0.503
				C333.958,201.187,352.822,201.77,352.822,201.77z"/>
		</g>
		<line fill="#070707" x1="336.926" y1="123.229" x2="342.942" y2="116.663"/>
		<path fill="#F7A231" d="M305.654,121.848c0,0-5.326-0.321-8.092-3.207c3.299,2.251,17.753,2.442,26.753-8.832
			c4.979,0.662-12.899,14.506-13.133,14.453C310.948,124.21,305.654,121.848,305.654,121.848z"/>
		<path fill="#FFBC00" d="M326.382,106.562c0,0-9.631,19.528-30.896,12.118c7.793,4.7,38.322,13.764,47.708-0.657
			C352.579,103.602,326.382,106.562,326.382,106.562z"/>
		<path fill="#F7A231" d="M328.088,114.692c0,0-1.246,5.704-8.293,8.012c4.148-0.001,9.588,0.422,13.802-5.205
			C332.796,117.803,329.458,119.473,328.088,114.692z"/>
		<path fill="#FBB03B" d="M328.121,115.771c0,0-1.246,5.705-8.294,8.013c4.149-0.002,9.589,0.421,13.804-5.205
			C332.829,118.882,329.49,120.554,328.121,115.771z"/>
		<circle fill="#F7C64B" cx="335.284" cy="111.518" r="10.193"/>
		<path fill="#FBB03B" d="M343.87,110.649l3.742,3.449c0,0-1.435,2.347-4.524,3.161C345.34,112.67,343.87,110.649,343.87,110.649z"
			/>
		<path fill="#F7A231" d="M344.764,114.187l2.848-0.088l-3.742-3.449C343.87,110.649,345.095,111.781,344.764,114.187z"/>
		<g>
			<g>
				<path fill="#070707" d="M323.993,107.322c-0.292,0.083-0.688-0.405-0.884-1.091l0,0c-0.197-0.686-0.12-1.311,0.172-1.396
					l17.834-5.109c0.292-0.083,0.689,0.406,0.885,1.091l0,0c0.197,0.688,0.119,1.311-0.173,1.395L323.993,107.322"/>
			</g>
			<path fill="#070707" d="M337.951,100.301c0.271,0.946,0.042,1.84-0.514,1.999l-9.67,2.77c-0.554,0.161-1.224-0.479-1.494-1.421
				l-1.471-5.131c-0.269-0.945-0.04-1.84,0.515-1.999l9.67-2.771c0.554-0.16,1.224,0.478,1.495,1.422L337.951,100.301z"/>
		</g>
	</g>
	<g id="hat_1_">
		<path fill="#070707" d="M387.086,123.889c1.445,4.502,1.062,8.65-0.854,9.266l-116.991,37.567
			c-1.917,0.616-4.642-2.534-6.087-7.038l0,0c-1.446-4.501-1.064-8.649,0.852-9.265l116.991-37.567
			C382.914,116.237,385.639,119.386,387.086,123.889L387.086,123.889z"/>
		<path fill="#070707" d="M366.785,118.693c2.36,7.35,0.823,14.417-3.436,15.785l-74.256,23.844
			c-4.26,1.368-9.625-3.482-11.985-10.833l-12.82-39.925c-2.361-7.35-0.822-14.417,3.437-15.784l74.255-23.844
			c4.26-1.369,9.624,3.482,11.984,10.833L366.785,118.693z"/>
	</g>
</g>
</svg>
