<?xml version="1.0" encoding="utf-8"?>
<!-- Generator: Adobe Illustrator 14.0.0, SVG Export Plug-In . SVG Version: 6.00 Build 43363)  -->
<!DOCTYPE svg PUBLIC "-//W3C//DTD SVG 1.1//EN" "http://www.w3.org/Graphics/SVG/1.1/DTD/svg11.dtd">
<svg version="1.1" xmlns="http://www.w3.org/2000/svg" xmlns:xlink="http://www.w3.org/1999/xlink" x="0px" y="0px" width="800px"
	 height="600px" viewBox="0 0 800 600" enable-background="new 0 0 800 600" xml:space="preserve">
<g id="leg-roll-large">
	<circle fill="#383838" cx="341.454" cy="445.164" r="55.499"/>
	<path opacity="0.8" fill="#FF0000" d="M285.954,445.164c0,5.803,0.895,11.396,2.546,16.652v-33.305
		C286.849,433.77,285.954,439.362,285.954,445.164z"/>
	<path opacity="0.8" fill="#FF6700" d="M292.045,419.896v50.535c1.062,2.072,2.241,4.074,3.546,5.984v-62.504
		C294.286,415.823,293.107,417.825,292.045,419.896z"/>
	<path opacity="0.8" fill="#FFB600" d="M299.136,409.275v71.778c1.123,1.323,2.306,2.593,3.546,3.804v-79.387
		C301.441,406.683,300.259,407.952,299.136,409.275z"/>
	<path opacity="0.8" fill="#FF4800" d="M377.135,402.667v84.995c1.227-1.03,2.413-2.106,3.546-3.237v-78.521
		C379.548,404.772,378.361,403.697,377.135,402.667z"/>
	<path opacity="0.8" fill="#FF9100" d="M384.226,409.8v70.729c1.268-1.531,2.446-3.136,3.546-4.798v-61.134
		C386.672,412.935,385.493,411.33,384.226,409.8z"/>
	<path opacity="0.8" fill="#FFD400" d="M391.316,469.545c1.45-2.961,2.636-6.072,3.546-9.301v-30.16
		c-0.91-3.228-2.096-6.339-3.546-9.3V469.545z"/>
	<path opacity="0.8" fill="#DAFF00" d="M306.227,402.279v85.771c1.143,0.939,2.33,1.825,3.546,2.673v-91.116
		C308.557,400.454,307.369,401.34,306.227,402.279z"/>
	<path opacity="0.8" fill="#64FF00" d="M313.317,397.331v95.667c1.156,0.682,2.338,1.324,3.546,1.922v-99.511
		C315.655,396.008,314.474,396.649,313.317,397.331z"/>
	<path opacity="0.8" fill="#00FF7F" d="M320.408,393.807v102.716c1.162,0.477,2.346,0.911,3.546,1.31V392.497
		C322.754,392.896,321.57,393.33,320.408,393.807z"/>
	<path opacity="0.8" fill="#00FFF2" d="M327.499,391.437v107.456c1.166,0.302,2.352,0.556,3.546,0.782V390.654
		C329.851,390.881,328.665,391.135,327.499,391.437z"/>
	<path opacity="0.8" fill="#00C9FF" d="M334.59,390.103v110.124c1.172,0.145,2.353,0.26,3.546,0.33V389.772
		C336.942,389.843,335.762,389.958,334.59,390.103z"/>
	<path opacity="0.8" fill="#0080FF" d="M341.681,389.671v110.987c1.192-0.005,2.372-0.058,3.546-0.136V389.807
		C344.053,389.729,342.873,389.676,341.681,389.671z"/>
	<path opacity="0.8" fill="#4A00FF" d="M348.771,390.16v110.009c1.193-0.157,2.378-0.343,3.546-0.575V390.735
		C351.149,390.503,349.965,390.317,348.771,390.16z"/>
	<path opacity="0.8" fill="#A700FF" d="M355.862,391.565v107.198c1.199-0.321,2.38-0.688,3.546-1.086V392.651
		C358.242,392.253,357.062,391.887,355.862,391.565z"/>
	<path opacity="0.8" fill="#FF00CF" d="M362.953,393.986v102.357c1.207-0.508,2.385-1.068,3.546-1.656v-99.046
		C365.338,395.054,364.16,394.493,362.953,393.986z"/>
	<path opacity="0.8" fill="#FF0068" d="M370.044,397.592v95.146c1.216-0.732,2.394-1.518,3.546-2.338v-90.47
		C372.438,399.109,371.26,398.324,370.044,397.592z"/>
</g>
<g id="leg-roll-small">
	<circle fill="#383838" cx="343.216" cy="521.448" r="21.261"/>
</g>
<g id="face">
	<circle fill="#DDCCB8" cx="337.216" cy="175.782" r="58.261"/>
	<g>
		<circle cx="331.032" cy="205.168" r="7.643"/>
		<path d="M324.186,201.77c0,0-6.258,11.07-17.729,7.903c4.864,3.139,24.102,9.492,30.348,0.503
			C343.05,201.187,324.186,201.77,324.186,201.77z"/>
	</g>
	<g>
		<circle cx="345.975" cy="205.168" r="7.643"/>
		<path d="M352.822,201.77c0,0,6.258,11.07,17.729,7.903c-4.864,3.139-24.102,9.492-30.348,0.503
			C333.958,201.187,352.822,201.77,352.822,201.77z"/>
	</g>
	<line fill="#070707" x1="336.926" y1="123.229" x2="342.942" y2="116.663"/>
	<path fill="#F7A231" d="M305.654,121.848c0,0-5.326-0.321-8.092-3.207c3.299,2.251,17.753,2.442,26.753-8.832
		c4.979,0.662-12.899,14.506-13.133,14.453C310.948,124.21,305.654,121.848,305.654,121.848z"/>
	<path fill="#FFBC00" d="M326.382,106.562c0,0-9.631,19.528-30.896,12.118c7.793,4.7,38.322,13.764,47.708-0.657
		C352.579,103.602,326.382,106.562,326.382,106.562z"/>
	<path fill="#F7A231" d="M328.088,114.692c0,0-1.246,5.704-8.293,8.012c4.148-0.001,9.588,0.422,13.802-5.205
		C332.796,117.803,329.458,119.473,328.088,114.692z"/>
	<path fill="#FBB03B" d="M328.121,115.771c0,0-1.246,5.705-8.294,8.013c4.149-0.002,9.589,0.421,13.804-5.205
		C332.829,118.882,329.49,120.554,328.121,115.771z"/>
	<circle fill="#FFBC00" cx="335.284" cy="111.518" r="10.193"/>
	<path fill="#FBB03B" d="M343.87,110.649l3.742,3.449c0,0-1.435,2.347-4.524,3.161C345.34,112.67,343.87,110.649,343.87,110.649z"/>
	<path fill="#F7A231" d="M344.764,114.187l2.848-0.088l-3.742-3.449C343.87,110.649,345.095,111.781,344.764,114.187z"/>
	<g>
		<path fill="#070707" d="M327.72,103.046c-0.298-0.059-0.428-0.674-0.291-1.374l0,0c0.136-0.701,0.49-1.222,0.788-1.164
			l18.206,3.568c0.298,0.058,0.429,0.675,0.292,1.374l0,0c-0.137,0.702-0.491,1.221-0.79,1.164L327.72,103.046"/>
	</g>
	<path fill="#070707" d="M343.345,103.148c-0.189,0.965-0.8,1.657-1.367,1.546l-9.871-1.935c-0.566-0.11-0.872-0.983-0.683-1.946
		l1.025-5.238c0.19-0.963,0.802-1.656,1.368-1.545l9.872,1.934c0.566,0.11,0.872,0.982,0.684,1.947L343.345,103.148z"/>
</g>
<g id="left-upper-arm">
	<g>
		<path d="M293.604,255.296c-3.132,6.508-10.945,9.247-17.453,6.115c-6.043-2.907-8.836-9.851-6.699-16.039
			c0.165-0.477,0.359-0.949,0.583-1.415c3.131-6.508,10.944-9.246,17.453-6.115C293.996,240.973,296.733,248.787,293.604,255.296z"
			/>
		<polygon points="269.066,247.051 254.462,303.697 264.767,316.321 288.951,260.63 		"/>
	</g>
	<path fill="#070707" d="M254.221,304.025c-1.953,1.543-2.128,4.32-0.39,6.208l5.5,5.974c1.739,1.888,4.729,2.166,6.681,0.623l0,0
		c1.955-1.543,2.128-4.321,0.39-6.208l-5.499-5.976C259.164,302.76,256.174,302.481,254.221,304.025L254.221,304.025z"/>
</g>
<g id="right-upper-arm">
	<g>
		<path d="M385.678,255.296c3.132,6.508,10.945,9.247,17.453,6.115c6.043-2.907,8.836-9.851,6.699-16.038
			c-0.165-0.477-0.359-0.949-0.583-1.415c-3.131-6.509-10.944-9.246-17.453-6.115C385.285,240.973,382.548,248.788,385.678,255.296z
			"/>
		<polygon points="410.215,247.051 424.819,303.697 414.515,316.322 390.33,260.63 		"/>
	</g>
	<path fill="#070707" d="M425.061,304.025c1.953,1.543,2.128,4.32,0.39,6.209l-5.499,5.973c-1.74,1.889-4.729,2.166-6.682,0.623l0,0
		c-1.955-1.543-2.129-4.32-0.39-6.207l5.499-5.977C420.117,302.76,423.107,302.482,425.061,304.025L425.061,304.025z"/>
</g>
<g id="left-lower-arm">
	<g>
		<path fill="#070707" d="M251.924,307.92c-1.787,1.876-1.716,4.847,0.162,6.634l5.942,5.664c1.879,1.789,4.85,1.716,6.637-0.157
			l0,0c1.787-1.882,1.716-4.85-0.162-6.64l-5.942-5.663C256.683,305.97,253.712,306.043,251.924,307.92L251.924,307.92z"/>
		<polygon points="251.003,312.781 240.548,341.859 245.35,349.003 260.797,320.897 		"/>
		<path fill="#DDCCB8" d="M226.917,341.52c1.382-2.545,4.562-3.49,7.108-2.107l8.447,4.579c2.546,1.38,3.49,4.562,2.109,7.107
			l-6.108,11.263c-1.379,2.545-4.562,3.491-7.105,2.111l-8.449-4.582c-2.545-1.38-3.488-4.562-2.109-7.108L226.917,341.52z"/>
		<path fill="#DDCCB8" d="M220.923,344.114c-0.107-2.732,2.021-5.034,4.754-5.14l5.238-0.205c2.731-0.107,5.032,2.021,5.141,4.754
			l0,0c0.105,2.731-2.021,5.032-4.755,5.14l-5.237,0.204C223.332,348.975,221.031,346.846,220.923,344.114L220.923,344.114z"/>
		<polygon fill="#070707" points="234.025,339.412 240.549,345.152 240.548,349.003 243.901,352.019 250.977,338.765 		"/>
	</g>
</g>
<g id="right-lower-arm">
	<g>
		<path fill="#070707" d="M426.878,308.585c1.787,1.876,1.716,4.847-0.162,6.634l-5.942,5.664c-1.879,1.789-4.85,1.716-6.637-0.157
			l0,0c-1.787-1.882-1.716-4.85,0.162-6.64l5.942-5.663C422.119,306.635,425.09,306.708,426.878,308.585L426.878,308.585z"/>
		<polygon points="427.799,313.446 438.254,342.524 433.452,349.668 418.005,321.562 		"/>
		<path fill="#DDCCB8" d="M451.886,342.185c-1.382-2.545-4.562-3.49-7.108-2.107l-8.447,4.579c-2.546,1.38-3.49,4.562-2.109,7.107
			l6.108,11.263c1.379,2.545,4.562,3.491,7.105,2.111l8.449-4.582c2.545-1.38,3.488-4.562,2.109-7.108L451.886,342.185z"/>
		<path fill="#DDCCB8" d="M457.879,344.779c0.107-2.732-2.021-5.034-4.754-5.14l-5.238-0.205c-2.731-0.107-5.032,2.021-5.141,4.754
			l0,0c-0.105,2.731,2.021,5.032,4.755,5.14l5.237,0.204C455.471,349.64,457.771,347.511,457.879,344.779L457.879,344.779z"/>
		<polygon fill="#070707" points="444.777,340.077 438.253,345.817 438.254,349.668 434.901,352.684 427.825,339.43 		"/>
	</g>
</g>
<g id="body">
	<path fill="#333333" d="M400,381.832c0,4.512-3.657,8.168-8.167,8.168h-99.71c-4.511,0-8.167-3.656-8.167-8.168l0,0
		c0-4.511,3.657-8.167,8.167-8.167h99.71C396.343,373.665,400,377.321,400,381.832L400,381.832z"/>
	<path fill="#383838" d="M407.695,371.565c0,5.025-3.809,9.1-8.505,9.1h-117.95c-4.697,0-8.504-4.074-8.504-9.1V245.36
		c0-5.026,3.808-9.1,8.504-9.1h117.95c4.696,0,8.505,4.074,8.505,9.1V371.565z"/>
	<polygon fill="#FFFFFF" points="315.334,235.26 362.002,235.26 340.216,294 	"/>
	<g>
		<path fill="#333333" d="M290.151,254.306c-4.983,0-9.023-4.04-9.023-9.023l0,0c0-4.983,4.04-9.023,9.023-9.023h13.927
			c4.983,0,9.023,4.04,9.023,9.023l0,0c0,4.983-4.04,9.023-9.023,9.022H290.151z"/>
		<path fill="#333333" d="M288.069,254.06c4.656-6.787,6.431-17.799,6.431-17.799h-21.648l-2.069,4.287
			c0,0,4.863-1.825,11.859,9.735C282.833,249.989,287.869,254.352,288.069,254.06z"/>
	</g>
	<g>
		<path fill="#333333" d="M389.732,254.306c4.983,0,9.023-4.04,9.023-9.023l0,0c0-4.983-4.04-9.023-9.023-9.023h-13.927
			c-4.983,0-9.023,4.04-9.023,9.023l0,0c0,4.983,4.04,9.023,9.023,9.022H389.732z"/>
		<path fill="#333333" d="M391.813,254.06c-4.656-6.787-6.431-17.799-6.431-17.799h21.648l2.069,4.287c0,0-4.863-1.825-11.858,9.735
			C397.049,249.989,392.014,254.352,391.813,254.06z"/>
	</g>
	<polygon fill="#333333" points="282.641,250.282 340,328.055 313.101,236.548 	"/>
	<polygon fill="#333333" points="396.819,250.282 340,328.055 366.36,236.548 	"/>
	<polygon fill="#333333" points="308.478,238.632 271.707,238.632 270.782,325.667 334.333,317.828 	"/>
	<polygon fill="#333333" points="371.485,238.632 408.256,238.632 409.18,325.667 345.629,317.828 	"/>
	<circle fill="#39B54A" cx="340.311" cy="281.298" r="2.666"/>
	<circle fill="#ED1C24" cx="340.311" cy="266.171" r="2.666"/>
	<circle fill="#F15A24" cx="340.311" cy="249.627" r="2.666"/>
</g>
<g id="hat">
	<path fill="#070707" d="M387.086,123.889c1.445,4.502,1.062,8.65-0.854,9.266l-116.991,37.567
		c-1.917,0.616-4.642-2.534-6.087-7.038l0,0c-1.446-4.501-1.064-8.649,0.852-9.265l116.991-37.567
		C382.914,116.237,385.639,119.386,387.086,123.889L387.086,123.889z"/>
	<path fill="#070707" d="M366.785,118.693c2.36,7.35,0.823,14.417-3.436,15.785l-74.256,23.844
		c-4.26,1.368-9.625-3.482-11.985-10.833l-12.82-39.925c-2.361-7.35-0.822-14.417,3.437-15.784l74.255-23.844
		c4.26-1.369,9.624,3.482,11.984,10.833L366.785,118.693z"/>
</g>
</svg>
